<?xml version="1.0" encoding="UTF-8"?>
<!DOCTYPE svg PUBLIC "-//W3C//DTD SVG 1.1//EN" "http://www.w3.org/Graphics/SVG/1.1/DTD/svg11.dtd">
<svg xmlns="http://www.w3.org/2000/svg" version="1.1" width="236px" height="210px" style="shape-rendering:geometricPrecision; text-rendering:geometricPrecision; image-rendering:optimizeQuality; fill-rule:evenodd; clip-rule:evenodd" xmlns:xlink="http://www.w3.org/1999/xlink">
<g><path style="opacity:1" fill="#2f3739" d="M 122.5,9.5 C 123.674,10.5137 124.34,11.847 124.5,13.5C 124.073,17.8244 123.739,22.1578 123.5,26.5C 122.065,27.9133 121.065,29.58 120.5,31.5C 119.508,26.8516 118.508,22.185 117.5,17.5C 117.7,13.7382 119.366,11.0715 122.5,9.5 Z"/></g>
<g><path style="opacity:1" fill="#4d5455" d="M 110.5,22.5 C 110.649,23.552 110.483,24.552 110,25.5C 109.329,24.7476 108.496,24.4142 107.5,24.5C 107.027,23.0937 106.027,22.427 104.5,22.5C 102.847,22.3404 101.514,21.6737 100.5,20.5C 99.3646,18.7868 97.698,18.1201 95.5,18.5C 94.209,18.7373 93.209,18.404 92.5,17.5C 92.5569,16.391 92.8902,15.391 93.5,14.5C 100.874,13.0148 106.541,15.6815 110.5,22.5 Z"/></g>
<g><path style="opacity:1" fill="#515759" d="M 131.5,26.5 C 130.833,26.5 130.167,26.5 129.5,26.5C 131.763,22.8971 134.43,19.5638 137.5,16.5C 139.403,16.2041 141.07,15.5375 142.5,14.5C 146.155,13.5119 149.821,14.0119 153.5,16C 145.594,18.4597 138.261,21.9597 131.5,26.5 Z"/></g>
<g><path style="opacity:1" fill="#9b9fa0" d="M 93.5,14.5 C 92.8902,15.391 92.5569,16.391 92.5,17.5C 87.4387,16.2077 87.772,15.2077 93.5,14.5 Z"/></g>
<g><path style="opacity:1" fill="#bcbebf" d="M 142.5,14.5 C 141.07,15.5375 139.403,16.2041 137.5,16.5C 138.635,14.7868 140.302,14.1201 142.5,14.5 Z"/></g>
<g><path style="opacity:1" fill="#9ea2a3" d="M 95.5,18.5 C 97.698,18.1201 99.3646,18.7868 100.5,20.5C 98.597,20.2041 96.9303,19.5375 95.5,18.5 Z"/></g>
<g><path style="opacity:1" fill="#828688" d="M 124.5,13.5 C 125.861,17.9298 125.527,22.2632 123.5,26.5C 123.739,22.1578 124.073,17.8244 124.5,13.5 Z"/></g>
<g><path style="opacity:1" fill="#4d5455" d="M 110.5,34.5 C 110.631,35.2389 110.464,35.9056 110,36.5C 109.329,35.7476 108.496,35.4142 107.5,35.5C 106.738,33.7376 105.404,32.7376 103.5,32.5C 101.181,32.0075 99.1815,31.0075 97.5,29.5C 96.653,28.0337 95.3197,27.2004 93.5,27C 90.854,26.5026 88.1873,26.3359 85.5,26.5C 84.5,26.5 83.5,26.5 82.5,26.5C 81.1667,25.5 81.1667,24.5 82.5,23.5C 93.882,21.5104 103.215,25.177 110.5,34.5 Z"/></g>
<g><path style="opacity:1" fill="#c8cacb" d="M 104.5,22.5 C 106.027,22.427 107.027,23.0937 107.5,24.5C 105.973,24.573 104.973,23.9063 104.5,22.5 Z"/></g>
<g><path style="opacity:1" fill="#d9dbdb" d="M 137.5,16.5 C 134.43,19.5638 131.763,22.8971 129.5,26.5C 127.588,28.6572 125.921,30.9906 124.5,33.5C 126.206,25.7978 130.539,20.1312 137.5,16.5 Z"/></g>
<g><path style="opacity:1" fill="#4c5355" d="M 159.5,23.5 C 160.478,23.811 161.145,24.4777 161.5,25.5C 147.743,26.2095 136.743,31.8762 128.5,42.5C 127.535,41.2789 127.702,39.9456 129,38.5C 131.335,35.3347 133.835,32.3347 136.5,29.5C 138.404,29.2624 139.738,28.2624 140.5,26.5C 143.647,26.2634 146.647,25.4301 149.5,24C 152.817,23.5017 156.15,23.335 159.5,23.5 Z"/></g>
<g><path style="opacity:1" fill="#d5d6d6" d="M 82.5,23.5 C 81.1667,24.5 81.1667,25.5 82.5,26.5C 78.5,25.5 78.5,24.5 82.5,23.5 Z"/></g>
<g><path style="opacity:1" fill="#909495" d="M 159.5,23.5 C 156.15,23.335 152.817,23.5017 149.5,24C 146.647,25.4301 143.647,26.2634 140.5,26.5C 146.439,22.6903 152.772,21.6903 159.5,23.5 Z"/></g>
<g><path style="opacity:1" fill="#979b9c" d="M 85.5,26.5 C 88.1873,26.3359 90.854,26.5026 93.5,27C 95.3197,27.2004 96.653,28.0337 97.5,29.5C 93.4309,28.3113 89.4309,27.3113 85.5,26.5 Z"/></g>
<g><path style="opacity:1" fill="#d4d6d6" d="M 122.5,9.5 C 119.366,11.0715 117.7,13.7382 117.5,17.5C 118.508,22.185 119.508,26.8516 120.5,31.5C 120.285,33.1788 120.952,34.1788 122.5,34.5C 122.5,35.1667 122.5,35.8333 122.5,36.5C 121.5,36.5 120.5,36.5 119.5,36.5C 118.57,29.9419 117.237,23.4419 115.5,17C 116.53,14.4398 117.697,11.9398 119,9.5C 120.292,8.20891 121.458,8.20891 122.5,9.5 Z"/></g>
<g><path style="opacity:1" fill="#c9cbcb" d="M 140.5,26.5 C 139.738,28.2624 138.404,29.2624 136.5,29.5C 137.262,27.7376 138.596,26.7376 140.5,26.5 Z"/></g>
<g><path style="opacity:1" fill="#777d7e" d="M 123.5,26.5 C 123.167,29.1667 122.833,31.8333 122.5,34.5C 120.952,34.1788 120.285,33.1788 120.5,31.5C 121.065,29.58 122.065,27.9133 123.5,26.5 Z"/></g>
<g><path style="opacity:1" fill="#6e7475" d="M 129.5,26.5 C 130.167,26.5 130.833,26.5 131.5,26.5C 129.528,30.1497 127.528,33.8164 125.5,37.5C 124.566,36.4324 124.232,35.099 124.5,33.5C 125.921,30.9906 127.588,28.6572 129.5,26.5 Z"/></g>
<g><path style="opacity:1" fill="#4e5557" d="M 87.5,32.5 C 92.3563,31.8393 96.6896,32.8393 100.5,35.5C 100.611,36.1174 100.944,36.6174 101.5,37C 100.207,37.49 98.8734,37.6567 97.5,37.5C 94.1148,36.372 90.7814,36.372 87.5,37.5C 86.1054,39.0544 85.4387,38.721 85.5,36.5C 85.7517,34.9271 86.4183,33.5938 87.5,32.5 Z"/></g>
<g><path style="opacity:1" fill="#555b5d" d="M 156.5,38.5 C 155.395,37.3995 154.062,36.7329 152.5,36.5C 148.751,36.7506 145.085,37.4172 141.5,38.5C 140.761,38.631 140.094,38.4643 139.5,38C 140.381,37.2917 141.047,36.4584 141.5,35.5C 145.662,32.6402 150.328,31.8068 155.5,33C 156.687,34.0195 157.687,35.1861 158.5,36.5C 158.145,37.5223 157.478,38.189 156.5,38.5 Z"/></g>
<g><path style="opacity:1" fill="#cdcfcf" d="M 103.5,32.5 C 105.404,32.7376 106.738,33.7376 107.5,35.5C 105.596,35.2624 104.262,34.2624 103.5,32.5 Z"/></g>
<g><path style="opacity:1" fill="#cfd0d1" d="M 87.5,32.5 C 86.4183,33.5938 85.7517,34.9271 85.5,36.5C 85.4387,38.721 86.1054,39.0544 87.5,37.5C 85.7084,39.9843 84.3751,39.4843 83.5,36C 84.0717,33.9264 85.405,32.7598 87.5,32.5 Z"/></g>
<g><path style="opacity:1" fill="#6c7274" d="M 110.5,22.5 C 115.451,26.9867 118.118,32.6534 118.5,39.5C 116.329,35.1559 113.663,31.1559 110.5,27.5C 109.167,26.8333 108.167,25.8333 107.5,24.5C 108.496,24.4142 109.329,24.7476 110,25.5C 110.483,24.552 110.649,23.552 110.5,22.5 Z"/></g>
<g><path style="opacity:1" fill="#e5e6e6" d="M 110.5,27.5 C 113.663,31.1559 116.329,35.1559 118.5,39.5C 119.976,41.6626 119.643,42.3293 117.5,41.5C 115.14,36.7802 112.807,32.1136 110.5,27.5 Z"/></g>
<g><path style="opacity:1" fill="#cdcfcf" d="M 152.5,36.5 C 154.062,36.7329 155.395,37.3995 156.5,38.5C 154.708,39.4728 153.375,38.8061 152.5,36.5 Z"/></g>
<g><path style="opacity:1" fill="#787d7e" d="M 100.5,35.5 C 103.764,37.0941 106.431,39.4275 108.5,42.5C 107.833,42.5 107.167,42.5 106.5,42.5C 106.027,41.0937 105.027,40.427 103.5,40.5C 101.181,40.0075 99.1815,39.0075 97.5,37.5C 98.8734,37.6567 100.207,37.49 101.5,37C 100.944,36.6174 100.611,36.1174 100.5,35.5 Z"/></g>
<g><path style="opacity:1" fill="#d2d4d4" d="M 124.5,33.5 C 124.232,35.099 124.566,36.4324 125.5,37.5C 123.631,41.5225 122.631,41.1892 122.5,36.5C 123.167,35.5 123.833,34.5 124.5,33.5 Z"/></g>
<g><path style="opacity:1" fill="#e0e1e1" d="M 136.5,29.5 C 133.835,32.3347 131.335,35.3347 129,38.5C 127.702,39.9456 127.535,41.2789 128.5,42.5C 127.948,44.7029 126.615,45.5362 124.5,45C 126.626,39.2049 129.96,34.2049 134.5,30C 135.094,29.5357 135.761,29.369 136.5,29.5 Z"/></g>
<g><path style="opacity:1" fill="#d1d3d3" d="M 103.5,40.5 C 105.027,40.427 106.027,41.0937 106.5,42.5C 104.973,42.573 103.973,41.9063 103.5,40.5 Z"/></g>
<g><path style="opacity:1" fill="#a4a7a8" d="M 110.5,34.5 C 114.147,37.4463 115.813,41.113 115.5,45.5C 112.836,42.1754 110.169,38.8421 107.5,35.5C 108.496,35.4142 109.329,35.7476 110,36.5C 110.464,35.9056 110.631,35.2389 110.5,34.5 Z"/></g>
<g><path style="opacity:1" fill="#ececec" d="M 121.5,42.5 C 121.897,41.475 122.563,41.3083 123.5,42C 122.906,42.4643 122.239,42.631 121.5,42.5 Z"/></g>
<g><path style="opacity:1" fill="#adb0b1" d="M 141.5,35.5 C 141.047,36.4584 140.381,37.2917 139.5,38C 140.094,38.4643 140.761,38.631 141.5,38.5C 137.733,41.0871 134.067,43.9205 130.5,47C 129.833,47.6667 129.167,47.6667 128.5,47C 131.783,41.8778 136.117,38.0444 141.5,35.5 Z"/></g>
<g><path style="opacity:1" fill="#c6c8c9" d="M 106.5,42.5 C 107.167,42.5 107.833,42.5 108.5,42.5C 109.962,43.4577 111.295,44.6244 112.5,46C 109.696,46.3874 107.696,45.2208 106.5,42.5 Z"/></g>
<g><path style="opacity:1" fill="#3c708a" d="M 105.5,76.5 C 106.506,82.1754 108.839,87.1754 112.5,91.5C 113.171,96.5061 115.171,100.839 118.5,104.5C 118.275,106.716 119.108,108.383 121,109.5C 127.274,96.6198 133.274,83.6198 139,70.5C 139.792,67.8936 141.292,65.8936 143.5,64.5C 145.467,64.2606 147.301,64.5939 149,65.5C 149.5,87.4975 149.667,109.497 149.5,131.5C 147.039,134.067 144.539,134.067 142,131.5C 141.5,124.842 141.334,118.175 141.5,111.5C 142.821,102.991 142.821,94.3245 141.5,85.5C 140.702,85.9569 140.369,86.6236 140.5,87.5C 137.578,94.6765 134.078,101.677 130,108.5C 129.51,109.793 129.343,111.127 129.5,112.5C 127.363,115.493 125.363,118.66 123.5,122C 121.833,122.667 120.167,122.667 118.5,122C 112.931,110.362 107.264,98.8623 101.5,87.5C 101.44,86.9569 101.107,86.6236 100.5,86.5C 99.5007,101.485 99.1673,116.485 99.5,131.5C 97.0388,134.067 94.5388,134.067 92,131.5C 91.1986,109.136 91.3653,86.8028 92.5,64.5C 94.5273,64.3379 96.5273,64.5045 98.5,65C 100.469,69.1144 102.803,72.9478 105.5,76.5 Z"/></g>
<g><path style="opacity:1" fill="#b5c8d3" d="M 150.5,131.5 C 150.167,131.5 149.833,131.5 149.5,131.5C 149.667,109.497 149.5,87.4975 149,65.5C 147.301,64.5939 145.467,64.2606 143.5,64.5C 143.5,64.1667 143.5,63.8333 143.5,63.5C 149.276,62.0945 151.943,64.5945 151.5,71C 150.799,91.3274 150.466,111.494 150.5,131.5 Z"/></g>
<g><path style="opacity:1" fill="#b6c9d3" d="M 105.5,76.5 C 108.622,81.0806 110.956,86.0806 112.5,91.5C 108.839,87.1754 106.506,82.1754 105.5,76.5 Z"/></g>
<g><path style="opacity:1" fill="#83a5b5" d="M 141.5,111.5 C 141.826,103.316 141.492,95.3159 140.5,87.5C 140.369,86.6236 140.702,85.9569 141.5,85.5C 142.821,94.3245 142.821,102.991 141.5,111.5 Z"/></g>
<g><path style="opacity:1" fill="#7da1b2" d="M 101.5,87.5 C 100.833,102.167 100.167,116.833 99.5,131.5C 99.1673,116.485 99.5007,101.485 100.5,86.5C 101.107,86.6236 101.44,86.9569 101.5,87.5 Z"/></g>
<g><path style="opacity:1" fill="#b5c9d3" d="M 112.5,91.5 C 115.29,95.4156 117.29,99.749 118.5,104.5C 115.171,100.839 113.171,96.5061 112.5,91.5 Z"/></g>
<g><path style="opacity:1" fill="#d9e3e8" d="M 140.5,87.5 C 141.492,95.3159 141.826,103.316 141.5,111.5C 141.334,118.175 141.5,124.842 142,131.5C 144.539,134.067 147.039,134.067 149.5,131.5C 149.833,131.5 150.167,131.5 150.5,131.5C 150.586,132.496 150.252,133.329 149.5,134C 146.833,134.667 144.167,134.667 141.5,134C 140.874,133.25 140.374,132.416 140,131.5C 140.307,118.175 140.307,104.842 140,91.5C 136.997,98.8397 133.497,105.84 129.5,112.5C 129.343,111.127 129.51,109.793 130,108.5C 134.078,101.677 137.578,94.6765 140.5,87.5 Z"/></g>
<g><path style="opacity:1" fill="#dee7eb" d="M 143.5,63.5 C 143.5,63.8333 143.5,64.1667 143.5,64.5C 141.292,65.8936 139.792,67.8936 139,70.5C 133.274,83.6198 127.274,96.6198 121,109.5C 119.108,108.383 118.275,106.716 118.5,104.5C 119.151,105.091 119.818,105.757 120.5,106.5C 127.53,93.1067 134.03,79.4401 140,65.5C 140.816,64.1772 141.983,63.5106 143.5,63.5 Z"/></g>
<g><path style="opacity:1" fill="#dae4e9" d="M 105.5,76.5 C 102.803,72.9478 100.469,69.1144 98.5,65C 96.5273,64.5045 94.5273,64.3379 92.5,64.5C 91.3653,86.8028 91.1986,109.136 92,131.5C 94.5388,134.067 97.0388,134.067 99.5,131.5C 100.167,116.833 100.833,102.167 101.5,87.5C 107.264,98.8623 112.931,110.362 118.5,122C 120.167,122.667 121.833,122.667 123.5,122C 125.363,118.66 127.363,115.493 129.5,112.5C 128.781,116.438 127.115,119.938 124.5,123C 122.167,123.667 119.833,123.667 117.5,123C 111.679,113.192 106.512,103.025 102,92.5C 101.667,105.833 101.333,119.167 101,132.5C 97.6667,135.167 94.3333,135.167 91,132.5C 90.3333,110.167 90.3333,87.8333 91,65.5C 93.3954,62.4785 96.2287,61.9785 99.5,64C 102.447,67.7271 104.447,71.8937 105.5,76.5 Z"/></g>
<g><path style="opacity:1" fill="#f7eee0" d="M 172.5,162.5 C 174.38,162.229 175.713,162.896 176.5,164.5C 174.847,164.34 173.514,163.674 172.5,162.5 Z"/></g>
<g><path style="opacity:1" fill="#d0a350" d="M 14.5,162.5 C 15.8221,162.33 16.9887,162.663 18,163.5C 21.1404,170.586 24.4738,177.586 28,184.5C 31.0885,182.323 32.5885,179.323 32.5,175.5C 35.5402,172.086 37.5402,168.086 38.5,163.5C 39.8333,163.5 41.1667,163.5 42.5,163.5C 42.5,174.5 42.5,185.5 42.5,196.5C 41.5,196.5 40.5,196.5 39.5,196.5C 38.6712,189.345 38.1712,182.011 38,174.5C 35.3489,179.802 32.6822,185.136 30,190.5C 29.4387,191.022 28.772,191.355 28,191.5C 24.3885,186.612 21.5551,181.278 19.5,175.5C 19.44,174.957 19.1067,174.624 18.5,174.5C 17.5027,181.803 17.1694,189.137 17.5,196.5C 16.5,196.5 15.5,196.5 14.5,196.5C 14.5,185.167 14.5,173.833 14.5,162.5 Z"/></g>
<g><path style="opacity:1" fill="#d3a858" d="M 72.5,162.5 C 74.7706,164.266 76.9373,166.266 79,168.5C 79.797,175.714 76.6304,180.214 69.5,182C 65.4631,182.607 61.4631,182.44 57.5,181.5C 58.0787,187.704 61.2454,191.704 67,193.5C 68.0698,193.472 68.9032,193.139 69.5,192.5C 71.5,191.833 73.5,191.167 75.5,190.5C 77.9815,191.696 77.9815,193.196 75.5,195C 71.747,196.989 67.747,197.822 63.5,197.5C 58.7749,195.108 55.4416,191.441 53.5,186.5C 53.262,182.476 52.262,178.81 50.5,175.5C 51.1667,175.5 51.8333,175.5 52.5,175.5C 54.9689,174.393 55.9689,172.393 55.5,169.5C 57.8333,167.833 59.8333,165.833 61.5,163.5C 65.0437,161.431 68.7104,161.098 72.5,162.5 Z M 73.5,174.5 C 71.0255,176.878 68.0255,178.211 64.5,178.5C 62.9581,177.837 61.2914,177.17 59.5,176.5C 61.4119,169.369 65.7452,166.869 72.5,169C 73.4061,170.699 73.7394,172.533 73.5,174.5 Z"/></g>
<g><path style="opacity:1" fill="#d2a757" d="M 103.5,163.5 C 114.193,172.581 115.193,182.748 106.5,194C 100.04,197.923 93.3737,198.423 86.5,195.5C 88.1549,185.051 87.8216,174.717 85.5,164.5C 88.5982,162.513 92.0982,161.513 96,161.5C 98.8211,161.408 101.321,162.074 103.5,163.5 Z M 107.5,178.5 C 106.99,181.539 106.323,184.539 105.5,187.5C 103.833,188.5 102.5,189.833 101.5,191.5C 98.9039,192.265 96.2372,192.599 93.5,192.5C 92.312,184.475 92.312,176.475 93.5,168.5C 101.151,167.466 105.818,170.8 107.5,178.5 Z"/></g>
<g><path style="opacity:1" fill="#d0a350" d="M 121.5,162.5 C 123.39,162.297 124.89,162.963 126,164.5C 130.333,171.833 134.667,179.167 139,186.5C 139.5,178.841 139.666,171.174 139.5,163.5C 140.833,163.5 142.167,163.5 143.5,163.5C 143.5,174.5 143.5,185.5 143.5,196.5C 141.856,196.714 140.356,196.38 139,195.5C 135.074,187.977 130.908,180.644 126.5,173.5C 126.217,172.711 125.717,172.044 125,171.5C 124.5,179.827 124.334,188.16 124.5,196.5C 123.5,196.5 122.5,196.5 121.5,196.5C 121.5,185.167 121.5,173.833 121.5,162.5 Z"/></g>
<g><path style="opacity:1" fill="#d2a757" d="M 172.5,162.5 C 173.514,163.674 174.847,164.34 176.5,164.5C 183.552,172.77 184.385,181.77 179,191.5C 167.797,200.943 159.131,198.943 153,185.5C 152.501,181.514 152.334,177.514 152.5,173.5C 152.229,171.62 152.896,170.287 154.5,169.5C 156.833,167.833 158.833,165.833 160.5,163.5C 162.679,162.074 165.179,161.408 168,161.5C 169.707,161.508 171.207,161.842 172.5,162.5 Z M 176.5,186.5 C 174.937,187.945 173.604,189.611 172.5,191.5C 163.374,193.057 158.707,189.057 158.5,179.5C 158.242,174.516 160.242,170.683 164.5,168C 171.325,166.814 175.492,169.647 177,176.5C 177.543,179.868 177.376,183.201 176.5,186.5 Z"/></g>
<g><path style="opacity:1" fill="#f2e4cc" d="M 188.5,162.5 C 189.184,167.9 190.184,173.233 191.5,178.5C 188.361,173.459 187.361,168.125 188.5,162.5 Z"/></g>
<g><path style="opacity:1" fill="#d1a554" d="M 188.5,162.5 C 190.911,162.137 192.411,163.137 193,165.5C 195.131,173.559 197.464,181.559 200,189.5C 202.509,183.411 205.009,177.411 207.5,171.5C 207.833,171.5 208.167,171.5 208.5,171.5C 211.057,176.963 213.39,182.63 215.5,188.5C 216.971,187.619 217.804,186.286 218,184.5C 219.359,180.595 220.192,176.595 220.5,172.5C 220.5,172.167 220.5,171.833 220.5,171.5C 222.472,168.916 223.472,165.916 223.5,162.5C 225.635,162.147 226.968,162.98 227.5,165C 224.208,175.13 221.041,185.297 218,195.5C 216.333,196.833 214.667,196.833 213,195.5C 211.535,190.106 209.869,184.772 208,179.5C 205.272,184.852 203.439,190.518 202.5,196.5C 200.833,196.5 199.167,196.5 197.5,196.5C 196.052,190.156 194.052,184.156 191.5,178.5C 190.184,173.233 189.184,167.9 188.5,162.5 Z"/></g>
<g><path style="opacity:1" fill="#efdfc1" d="M 61.5,163.5 C 59.8333,165.833 57.8333,167.833 55.5,169.5C 56.5,166.5 58.5,164.5 61.5,163.5 Z"/></g>
<g><path style="opacity:1" fill="#eedbba" d="M 223.5,162.5 C 223.472,165.916 222.472,168.916 220.5,171.5C 220.747,168.146 221.747,165.146 223.5,162.5 Z"/></g>
<g><path style="opacity:1" fill="#f2e4cc" d="M 42.5,197.5 C 41.209,197.737 40.209,197.404 39.5,196.5C 40.5,196.5 41.5,196.5 42.5,196.5C 42.5,185.5 42.5,174.5 42.5,163.5C 41.1667,163.5 39.8333,163.5 38.5,163.5C 37.5402,168.086 35.5402,172.086 32.5,175.5C 33.7694,170.957 35.6028,166.624 38,162.5C 40.2672,161.065 42.2672,161.398 44,163.5C 44.6667,174.5 44.6667,185.5 44,196.5C 43.6174,197.056 43.1174,197.389 42.5,197.5 Z"/></g>
<g><path style="opacity:1" fill="#eedcbc" d="M 160.5,163.5 C 158.833,165.833 156.833,167.833 154.5,169.5C 155.5,166.5 157.5,164.5 160.5,163.5 Z"/></g>
<g><path style="opacity:1" fill="#f7eede" d="M 176.5,186.5 C 177.376,183.201 177.543,179.868 177,176.5C 175.492,169.647 171.325,166.814 164.5,168C 160.242,170.683 158.242,174.516 158.5,179.5C 158.707,189.057 163.374,193.057 172.5,191.5C 167.344,194.632 162.844,193.632 159,188.5C 155.735,182.472 155.735,176.472 159,170.5C 163.2,166.286 168.034,165.452 173.5,168C 178.803,173.581 179.803,179.748 176.5,186.5 Z"/></g>
<g><path style="opacity:1" fill="#f7f0e2" d="M 107.5,174.5 C 107.5,175.833 107.5,177.167 107.5,178.5C 105.818,170.8 101.151,167.466 93.5,168.5C 92.312,176.475 92.312,184.475 93.5,192.5C 96.2372,192.599 98.9039,192.265 101.5,191.5C 101.389,192.117 101.056,192.617 100.5,193C 97.5184,193.498 94.5184,193.665 91.5,193.5C 91.5,184.5 91.5,175.5 91.5,166.5C 99.0851,164.959 104.418,167.626 107.5,174.5 Z"/></g>
<g><path style="opacity:1" fill="#e9d2a8" d="M 85.5,164.5 C 87.8216,174.717 88.1549,185.051 86.5,195.5C 85.8333,195.167 85.1667,194.833 84.5,194.5C 83.2625,193.257 83.5959,192.257 85.5,191.5C 87.0668,182.981 86.7335,174.648 84.5,166.5C 84.5427,165.584 84.8761,164.917 85.5,164.5 Z"/></g>
<g><path style="opacity:1" fill="#ead4ad" d="M 14.5,162.5 C 14.5,173.833 14.5,185.167 14.5,196.5C 14.1667,196.5 13.8333,196.5 13.5,196.5C 13.6206,187.499 13.2872,178.332 12.5,169C 12.6667,167.167 12.8333,165.333 13,163.5C 13.3826,162.944 13.8826,162.611 14.5,162.5 Z"/></g>
<g><path style="opacity:1" fill="#ebd5af" d="M 121.5,162.5 C 121.5,173.833 121.5,185.167 121.5,196.5C 121.167,196.5 120.833,196.5 120.5,196.5C 120.362,187.491 120.028,178.325 119.5,169C 119.667,167.167 119.833,165.333 120,163.5C 120.383,162.944 120.883,162.611 121.5,162.5 Z"/></g>
<g><path style="opacity:1" fill="#e9d2a9" d="M 55.5,169.5 C 55.9689,172.393 54.9689,174.393 52.5,175.5C 53.1302,173.25 54.1302,171.25 55.5,169.5 Z"/></g>
<g><path style="opacity:1" fill="#f6ecdc" d="M 208.5,171.5 C 209.675,171.281 210.675,171.614 211.5,172.5C 212.999,177.161 214.499,181.828 216,186.5C 217.212,181.62 218.712,176.953 220.5,172.5C 220.192,176.595 219.359,180.595 218,184.5C 217.804,186.286 216.971,187.619 215.5,188.5C 213.39,182.63 211.057,176.963 208.5,171.5 Z"/></g>
<g><path style="opacity:1" fill="#f6ecdb" d="M 14.5,162.5 C 15.8845,161.199 17.3845,161.199 19,162.5C 22.1822,168.864 25.3489,175.198 28.5,181.5C 29.8567,179.435 31.19,177.435 32.5,175.5C 32.5885,179.323 31.0885,182.323 28,184.5C 24.4738,177.586 21.1404,170.586 18,163.5C 16.9887,162.663 15.8221,162.33 14.5,162.5 Z"/></g>
<g><path style="opacity:1" fill="#f6edde" d="M 73.5,174.5 C 73.7394,172.533 73.4061,170.699 72.5,169C 65.7452,166.869 61.4119,169.369 59.5,176.5C 61.2914,177.17 62.9581,177.837 64.5,178.5C 57.1323,179.248 55.6323,176.581 60,170.5C 63.8543,166.329 68.3543,165.496 73.5,168C 74.8112,170.274 74.8112,172.44 73.5,174.5 Z"/></g>
<g><path style="opacity:1" fill="#f2e4cc" d="M 50.5,175.5 C 52.262,178.81 53.262,182.476 53.5,186.5C 52.7075,183.202 51.0409,180.369 48.5,178C 48.6387,176.699 49.3054,175.866 50.5,175.5 Z"/></g>
<g><path style="opacity:1" fill="#f9f3e8" d="M 176.5,164.5 C 182.133,167.927 184.8,173.094 184.5,180C 183.723,194.051 176.39,200.051 162.5,198C 152.41,192.559 149.077,184.392 152.5,173.5C 152.334,177.514 152.501,181.514 153,185.5C 159.131,198.943 167.797,200.943 179,191.5C 184.385,181.77 183.552,172.77 176.5,164.5 Z"/></g>
<g><path style="opacity:1" fill="#dfc28a" d="M 126.5,173.5 C 125.833,181.167 125.167,188.833 124.5,196.5C 124.334,188.16 124.5,179.827 125,171.5C 125.717,172.044 126.217,172.711 126.5,173.5 Z"/></g>
<g><path style="opacity:1" fill="#f7eee0" d="M 121.5,162.5 C 123.489,161.113 125.322,161.447 127,163.5C 130.919,169.67 134.586,176.003 138,182.5C 138.169,175.809 138.669,169.142 139.5,162.5C 141.167,161.167 142.833,161.167 144.5,162.5C 145.666,173.819 145.832,185.152 145,196.5C 142.667,199.167 140.333,199.167 138,196.5C 134.586,190.003 130.919,183.67 127,177.5C 126.667,184.167 126.333,190.833 126,197.5C 123.765,198.98 121.932,198.647 120.5,196.5C 120.833,196.5 121.167,196.5 121.5,196.5C 122.5,196.5 123.5,196.5 124.5,196.5C 125.167,188.833 125.833,181.167 126.5,173.5C 130.908,180.644 135.074,187.977 139,195.5C 140.356,196.38 141.856,196.714 143.5,196.5C 143.5,185.5 143.5,174.5 143.5,163.5C 142.167,163.5 140.833,163.5 139.5,163.5C 139.666,171.174 139.5,178.841 139,186.5C 134.667,179.167 130.333,171.833 126,164.5C 124.89,162.963 123.39,162.297 121.5,162.5 Z"/></g>
<g><path style="opacity:1" fill="#e5cb9d" d="M 107.5,174.5 C 108.638,177.304 108.805,180.304 108,183.5C 107.8,185.32 106.966,186.653 105.5,187.5C 106.323,184.539 106.99,181.539 107.5,178.5C 107.5,177.167 107.5,175.833 107.5,174.5 Z"/></g>
<g><path style="opacity:1" fill="#f6ecdc" d="M 223.5,162.5 C 224.884,161.199 226.384,161.199 228,162.5C 228.667,164.5 228.667,166.5 228,168.5C 225.489,177.546 222.822,186.546 220,195.5C 217.679,198.917 215.012,199.25 212,196.5C 210.822,192.12 209.488,187.787 208,183.5C 206.512,187.787 205.178,192.12 204,196.5C 202.135,198.673 199.969,199.007 197.5,197.5C 194.695,191.419 192.695,185.086 191.5,178.5C 194.052,184.156 196.052,190.156 197.5,196.5C 199.167,196.5 200.833,196.5 202.5,196.5C 203.439,190.518 205.272,184.852 208,179.5C 209.869,184.772 211.535,190.106 213,195.5C 214.667,196.833 216.333,196.833 218,195.5C 221.041,185.297 224.208,175.13 227.5,165C 226.968,162.98 225.635,162.147 223.5,162.5 Z"/></g>
<g><path style="opacity:1" fill="#f8f1e5" d="M 39.5,196.5 C 40.209,197.404 41.209,197.737 42.5,197.5C 41.1155,198.801 39.6155,198.801 38,197.5C 37.6667,191.833 37.3333,186.167 37,180.5C 31.3333,196.5 25.6667,196.5 20,180.5C 19.6667,186.167 19.3333,191.833 19,197.5C 16.7655,198.98 14.9321,198.647 13.5,196.5C 13.8333,196.5 14.1667,196.5 14.5,196.5C 15.5,196.5 16.5,196.5 17.5,196.5C 18.1667,189.5 18.8333,182.5 19.5,175.5C 21.5551,181.278 24.3885,186.612 28,191.5C 28.772,191.355 29.4387,191.022 30,190.5C 32.6822,185.136 35.3489,179.802 38,174.5C 38.1712,182.011 38.6712,189.345 39.5,196.5 Z"/></g>
<g><path style="opacity:1" fill="#f7efe1" d="M 72.5,162.5 C 80.526,165.194 82.6927,170.527 79,178.5C 77.0478,180.894 74.5478,182.394 71.5,183C 67.4592,183.173 63.4592,183.673 59.5,184.5C 60.7981,189.805 64.1314,192.472 69.5,192.5C 68.9032,193.139 68.0698,193.472 67,193.5C 61.2454,191.704 58.0787,187.704 57.5,181.5C 61.4631,182.44 65.4631,182.607 69.5,182C 76.6304,180.214 79.797,175.714 79,168.5C 76.9373,166.266 74.7706,164.266 72.5,162.5 Z"/></g>
<g><path style="opacity:1" fill="#f5ead8" d="M 188.5,162.5 C 190.489,161.113 192.322,161.447 194,163.5C 196.034,170.985 198.368,178.318 201,185.5C 202.178,181.12 203.512,176.787 205,172.5C 205.671,171.748 206.504,171.414 207.5,171.5C 205.009,177.411 202.509,183.411 200,189.5C 197.464,181.559 195.131,173.559 193,165.5C 192.411,163.137 190.911,162.137 188.5,162.5 Z"/></g>
<g><path style="opacity:1" fill="#f4e9d5" d="M 105.5,187.5 C 105.167,189.833 103.833,191.167 101.5,191.5C 102.5,189.833 103.833,188.5 105.5,187.5 Z"/></g>
<g><path style="opacity:1" fill="#eedbbb" d="M 176.5,186.5 C 176.33,189.204 174.997,190.871 172.5,191.5C 173.604,189.611 174.937,187.945 176.5,186.5 Z"/></g>
<g><path style="opacity:1" fill="#f9f4ea" d="M 53.5,186.5 C 55.4416,191.441 58.7749,195.108 63.5,197.5C 57.4156,196.413 54.0823,192.746 53.5,186.5 Z"/></g>
<g><path style="opacity:1" fill="#e0c38d" d="M 19.5,175.5 C 18.8333,182.5 18.1667,189.5 17.5,196.5C 17.1694,189.137 17.5027,181.803 18.5,174.5C 19.1067,174.624 19.44,174.957 19.5,175.5 Z"/></g>
<g><path style="opacity:1" fill="#f9f2e7" d="M 75.5,190.5 C 77.6839,189.017 79.0173,189.684 79.5,192.5C 77.0727,196.833 73.2393,198.833 68,198.5C 66.2933,198.492 64.7933,198.158 63.5,197.5C 67.747,197.822 71.747,196.989 75.5,195C 77.9815,193.196 77.9815,191.696 75.5,190.5 Z"/></g>
<g><path style="opacity:1" fill="#f9f4ea" d="M 103.5,163.5 C 108.481,164.983 111.647,168.316 113,173.5C 115.831,191.672 107.998,199.839 89.5,198C 87.0268,197.78 85.3602,196.614 84.5,194.5C 85.1667,194.833 85.8333,195.167 86.5,195.5C 93.3737,198.423 100.04,197.923 106.5,194C 115.193,182.748 114.193,172.581 103.5,163.5 Z"/></g>
</svg>
